<?xml version="1.0" encoding="UTF-8" standalone="no"?><!DOCTYPE svg PUBLIC "-//W3C//DTD SVG 1.1//EN" "http://www.w3.org/Graphics/SVG/1.1/DTD/svg11.dtd"><svg width="100%" height="100%" viewBox="0 0 433 123" version="1.1" xmlns="http://www.w3.org/2000/svg" xmlns:xlink="http://www.w3.org/1999/xlink" xml:space="preserve" xmlns:serif="http://www.serif.com/" style="fill-rule:evenodd;clip-rule:evenodd;stroke-linejoin:round;stroke-miterlimit:10;"><rect id="chaos_blog_arnold_legend" x="0" y="0" width="432.532" height="122.574" style="fill:none;"/><g transform="matrix(4.16667,0,0,4.16667,-424.58,-228.168)"><text x="106.668px" y="62.952px" style="font-family:'ArialMT', 'Arial';font-size:8px;">infection</text><text x="110.893px" y="70.952px" style="font-family:'ArialMT', 'Arial';font-size:8px;">peaks</text><g transform="matrix(8,0,0,8,136.24,78.952)"></g><text x="106.893px" y="78.952px" style="font-family:'ArialMT', 'Arial';font-size:8px;">per year</text></g><rect x="155.817" y="77.624" width="256.766" height="26.24" style="fill:#fff;"/><path d="M155.817,103.864l-0,-26.24l28.529,0l0,26.24l-28.529,0" style="fill:#ffffd9;fill-rule:nonzero;"/><path d="M184.346,103.864l0,-26.24l28.53,0l-0,26.24l-28.53,0" style="fill:#edf8b1;fill-rule:nonzero;"/><path d="M212.876,103.864l-0,-26.24l28.529,0l0,26.24l-28.529,0" style="fill:#c7e9b4;fill-rule:nonzero;"/><path d="M241.405,103.864l0,-26.24l28.53,0l0,26.24l-28.53,0" style="fill:#7fcdbb;fill-rule:nonzero;"/><path d="M269.935,103.864l0,-26.24l28.53,0l-0,26.24l-28.53,0" style="fill:#41b6c4;fill-rule:nonzero;"/><path d="M298.465,103.864l-0,-26.24l28.529,0l0,26.24l-28.529,0" style="fill:#1d91c0;fill-rule:nonzero;"/><path d="M326.994,103.864l0,-26.24l28.53,0l-0,26.24l-28.53,0" style="fill:#225ea8;fill-rule:nonzero;"/><path d="M355.524,103.864l-0,-26.24l28.529,0l0,26.24l-28.529,0" style="fill:#253494;fill-rule:nonzero;"/><path d="M384.053,103.864l0,-26.24l28.53,0l-0,26.24l-28.53,0" style="fill-rule:nonzero;"/><path d="M170.082,77.624l-0,-14.583" style="fill:none;fill-rule:nonzero;stroke:#000;stroke-width:3.33px;"/><path d="M198.611,77.624l0,-7.887" style="fill:none;fill-rule:nonzero;stroke:#000;stroke-width:3.33px;"/><path d="M227.141,77.624l-0,-7.887" style="fill:none;fill-rule:nonzero;stroke:#000;stroke-width:3.33px;"/><path d="M255.67,77.624l0,-7.887" style="fill:none;fill-rule:nonzero;stroke:#000;stroke-width:3.33px;"/><path d="M284.2,77.624l-0,-7.887" style="fill:none;fill-rule:nonzero;stroke:#000;stroke-width:3.33px;"/><path d="M312.729,77.624l0,-14.583" style="fill:none;fill-rule:nonzero;stroke:#000;stroke-width:3.33px;"/><path d="M341.259,77.624l-0,-7.887" style="fill:none;fill-rule:nonzero;stroke:#000;stroke-width:3.33px;"/><path d="M369.788,77.624l0,-14.583" style="fill:none;fill-rule:nonzero;stroke:#000;stroke-width:3.33px;"/><path d="M398.318,77.624l-0,-7.887" style="fill:none;fill-rule:nonzero;stroke:#000;stroke-width:3.33px;"/><rect x="155.817" y="77.624" width="256.766" height="26.24" style="fill:none;fill-rule:nonzero;stroke:#000;stroke-width:3.33px;stroke-linecap:square;stroke-linejoin:miter;"/><g transform="matrix(33.3333,0,0,33.3333,178.778,55.3933)"></g><text x="160.239px" y="55.393px" style="font-family:'ArialMT', 'Arial';font-size:33.333px;">1</text><g transform="matrix(33.3333,0,0,33.3333,321.865,56.4845)"></g><text x="303.326px" y="56.484px" style="font-family:'ArialMT', 'Arial';font-size:33.333px;">2</text><g transform="matrix(33.3333,0,0,33.3333,377.977,54.7698)"></g><text x="359.439px" y="54.77px" style="font-family:'ArialMT', 'Arial';font-size:33.333px;">3</text><g transform="matrix(4.16667,0,0,4.16667,-119.245,-322.78)"><text x="74.189px" y="84.622px" style="font-family:'ArialMT', 'Arial';font-size:5.6px;">5</text><g transform="matrix(5.6,0,0,5.6,77.3034,91.282)"></g><text x="74.189px" y="91.282px" style="font-family:'ArialMT', 'Arial';font-size:5.6px;">4</text></g><g transform="matrix(4.16667,0,0,4.16667,-132.047,-322.78)"><text x="84.685px" y="84.622px" style="font-family:'ArialMT', 'Arial';font-size:5.6px;">4</text><g transform="matrix(5.6,0,0,5.6,87.7995,91.282)"></g><text x="84.685px" y="91.282px" style="font-family:'ArialMT', 'Arial';font-size:5.6px;">3</text></g><g transform="matrix(4.16667,0,0,4.16667,-147.176,-323.362)"><text x="95.181px" y="84.699px" style="font-family:'ArialMT', 'Arial';font-size:5.6px;">3</text><g transform="matrix(5.6,0,0,5.6,98.2956,91.4286)"></g><text x="95.181px" y="91.429px" style="font-family:'ArialMT', 'Arial';font-size:5.6px;">2</text></g><rect x="189.876" y="36.381" width="14.845" height="2.083"/><rect x="219.644" y="35.48" width="14.845" height="2.083"/><rect x="248.83" y="34.954" width="14.845" height="2.083"/><g transform="matrix(4.16667,0,0,4.16667,-163.901,-323.91)"><text x="105.677px" y="84.622px" style="font-family:'ArialMT', 'Arial';font-size:5.6px;">5</text><g transform="matrix(5.6,0,0,5.6,108.792,91.3549)"></g><text x="105.677px" y="91.355px" style="font-family:'ArialMT', 'Arial';font-size:5.6px;">3</text></g><g transform="matrix(4.16667,0,0,4.16667,-104.294,-323.328)"><text x="105.677px" y="84.622px" style="font-family:'ArialMT', 'Arial';font-size:5.6px;">5</text><g transform="matrix(5.6,0,0,5.6,108.792,91.3549)"></g><text x="105.677px" y="91.355px" style="font-family:'ArialMT', 'Arial';font-size:5.6px;">2</text></g><rect x="276.42" y="35.251" width="14.845" height="2.083"/><rect x="333.884" y="34.109" width="14.845" height="2.083"/><g transform="matrix(6.12323e-17,-1,1,6.12323e-17,-2715.79,-1487.12)"><g transform="matrix(25,0,0,25,-1491.55,3121.12)"></g><text x="-1548.53px" y="3121.12px" style="font-family:'ArialMT', 'Arial';font-size:25px;">other</text></g></svg>