<?xml version="1.0" encoding="UTF-8" standalone="no"?><!DOCTYPE svg PUBLIC "-//W3C//DTD SVG 1.1//EN" "http://www.w3.org/Graphics/SVG/1.1/DTD/svg11.dtd"><svg width="100%" height="100%" viewBox="0 0 168 48" version="1.1" xmlns="http://www.w3.org/2000/svg" xmlns:xlink="http://www.w3.org/1999/xlink" xml:space="preserve" xmlns:serif="http://www.serif.com/" style="fill-rule:evenodd;clip-rule:evenodd;stroke-linejoin:round;stroke-miterlimit:10;"><rect id="chaos_blog_arnold_legend" x="0" y="-0" width="167.859" height="47.278" style="fill:none;"/><clipPath id="_clip1"><rect x="0" y="-0" width="167.859" height="47.278"/></clipPath><g clip-path="url(#_clip1)"><g transform="matrix(1.54592,0,0,1.54592,-151.558,-82.0847)"><text x="106.668px" y="62.952px" style="font-family:'ArialMT', 'Arial', sans-serif;font-size:8px;">infection</text><text x="110.893px" y="70.952px" style="font-family:'ArialMT', 'Arial', sans-serif;font-size:8px;">peaks</text><g transform="matrix(8,0,0,8,136.24,78.952)"></g><text x="106.893px" y="78.952px" style="font-family:'ArialMT', 'Arial', sans-serif;font-size:8px;">per year</text></g><rect x="63.782" y="31.371" width="95.266" height="9.736" style="fill:#fff;"/><path d="M63.782,41.107l-0,-9.736l10.585,-0l-0,9.736l-10.585,-0" style="fill:#ffffd9;fill-rule:nonzero;"/><path d="M74.367,41.107l-0,-9.736l10.585,-0l-0,9.736l-10.585,-0" style="fill:#edf8b1;fill-rule:nonzero;"/><path d="M84.952,41.107l-0,-9.736l10.585,-0l-0,9.736l-10.585,-0" style="fill:#c7e9b4;fill-rule:nonzero;"/><path d="M95.537,41.107l-0,-9.736l10.585,-0l-0,9.736l-10.585,-0" style="fill:#7fcdbb;fill-rule:nonzero;"/><path d="M106.122,41.107l-0,-9.736l10.585,-0l0,9.736l-10.585,-0" style="fill:#41b6c4;fill-rule:nonzero;"/><path d="M116.707,41.107l0,-9.736l10.585,-0l0,9.736l-10.585,-0" style="fill:#1d91c0;fill-rule:nonzero;"/><path d="M127.292,41.107l0,-9.736l10.585,-0l0,9.736l-10.585,-0" style="fill:#225ea8;fill-rule:nonzero;"/><path d="M137.877,41.107l0,-9.736l10.585,-0l0,9.736l-10.585,-0" style="fill:#253494;fill-rule:nonzero;"/><path d="M148.462,41.107l0,-9.736l10.585,-0l0,9.736l-10.585,-0" style="fill-rule:nonzero;"/><path d="M69.074,31.371l0,-5.411" style="fill:none;fill-rule:nonzero;stroke:#000;stroke-width:3.33px;"/><path d="M79.659,31.371l0,-2.926" style="fill:none;fill-rule:nonzero;stroke:#000;stroke-width:3.33px;"/><path d="M90.244,31.371l0,-2.926" style="fill:none;fill-rule:nonzero;stroke:#000;stroke-width:3.33px;"/><path d="M100.829,31.371l0,-2.926" style="fill:none;fill-rule:nonzero;stroke:#000;stroke-width:3.33px;"/><path d="M111.415,31.371l-0,-2.926" style="fill:none;fill-rule:nonzero;stroke:#000;stroke-width:3.33px;"/><path d="M122,31.371l-0,-5.411" style="fill:none;fill-rule:nonzero;stroke:#000;stroke-width:3.33px;"/><path d="M132.585,31.371l-0,-2.926" style="fill:none;fill-rule:nonzero;stroke:#000;stroke-width:3.33px;"/><path d="M143.17,31.371l-0,-5.411" style="fill:none;fill-rule:nonzero;stroke:#000;stroke-width:3.33px;"/><path d="M153.755,31.371l-0,-2.926" style="fill:none;fill-rule:nonzero;stroke:#000;stroke-width:3.33px;"/><rect x="63.782" y="31.371" width="95.266" height="9.736" style="fill:none;fill-rule:nonzero;stroke:#000;stroke-width:2.08px;stroke-linecap:square;stroke-linejoin:miter;"/><g transform="matrix(12.3674,0,0,12.3674,72.3006,23.1227)"></g><text x="65.422px" y="23.123px" style="font-family:'ArialMT', 'Arial', sans-serif;font-size:12.367px;">1</text><g transform="matrix(12.3674,0,0,12.3674,125.389,23.5275)"></g><text x="118.511px" y="23.528px" style="font-family:'ArialMT', 'Arial', sans-serif;font-size:12.367px;">2</text><g transform="matrix(12.3674,0,0,12.3674,146.208,22.8913)"></g><text x="139.33px" y="22.891px" style="font-family:'ArialMT', 'Arial', sans-serif;font-size:12.367px;">3</text><g transform="matrix(1.54592,0,0,1.54592,-38.2722,-117.188)"><text x="74.189px" y="84.622px" style="font-family:'ArialMT', 'Arial', sans-serif;font-size:5.6px;">5</text><g transform="matrix(5.6,0,0,5.6,77.3034,91.282)"></g><text x="74.189px" y="91.282px" style="font-family:'ArialMT', 'Arial', sans-serif;font-size:5.6px;">4</text></g><g transform="matrix(1.54592,0,0,1.54592,-43.022,-117.188)"><text x="84.685px" y="84.622px" style="font-family:'ArialMT', 'Arial', sans-serif;font-size:5.6px;">4</text><g transform="matrix(5.6,0,0,5.6,87.7995,91.282)"></g><text x="84.685px" y="91.282px" style="font-family:'ArialMT', 'Arial', sans-serif;font-size:5.6px;">3</text></g><g transform="matrix(1.54592,0,0,1.54592,-48.6353,-117.404)"><text x="95.181px" y="84.699px" style="font-family:'ArialMT', 'Arial', sans-serif;font-size:5.6px;">3</text><g transform="matrix(5.6,0,0,5.6,98.2956,91.4286)"></g><text x="95.181px" y="91.429px" style="font-family:'ArialMT', 'Arial', sans-serif;font-size:5.6px;">2</text></g><rect x="76.418" y="16.069" width="5.508" height="0.773"/><rect x="87.463" y="15.734" width="5.508" height="0.773"/><rect x="98.292" y="15.539" width="5.508" height="0.773"/><g transform="matrix(1.54592,0,0,1.54592,-54.8406,-117.607)"><text x="105.677px" y="84.622px" style="font-family:'ArialMT', 'Arial', sans-serif;font-size:5.6px;">5</text><g transform="matrix(5.6,0,0,5.6,108.792,91.3549)"></g><text x="105.677px" y="91.355px" style="font-family:'ArialMT', 'Arial', sans-serif;font-size:5.6px;">3</text></g><g transform="matrix(1.54592,0,0,1.54592,-32.725,-117.391)"><text x="105.677px" y="84.622px" style="font-family:'ArialMT', 'Arial', sans-serif;font-size:5.6px;">5</text><g transform="matrix(5.6,0,0,5.6,108.792,91.3549)"></g><text x="105.677px" y="91.355px" style="font-family:'ArialMT', 'Arial', sans-serif;font-size:5.6px;">2</text></g><rect x="108.528" y="15.649" width="5.508" height="0.773"/><rect x="129.848" y="15.226" width="5.508" height="0.773"/><g transform="matrix(6.12323e-17,-1,1,6.12323e-17,-1004.22,-543.214)"><g transform="matrix(9.27554,0,0,9.27554,-547.427,1160.57)"></g><text x="-568.569px" y="1160.58px" style="font-family:'ArialMT', 'Arial', sans-serif;font-size:9.276px;">other</text></g></g></svg>