<?xml version="1.0" encoding="UTF-8" standalone="no"?><!DOCTYPE svg PUBLIC "-//W3C//DTD SVG 1.1//EN" "http://www.w3.org/Graphics/SVG/1.1/DTD/svg11.dtd"><svg width="100%" height="100%" viewBox="0 0 897 581" version="1.1" xmlns="http://www.w3.org/2000/svg" xmlns:xlink="http://www.w3.org/1999/xlink" xml:space="preserve" xmlns:serif="http://www.serif.com/" style="fill-rule:evenodd;clip-rule:evenodd;stroke-linecap:square;stroke-linejoin:round;stroke-miterlimit:10;"><rect id="chaos-blog_1-data" x="0.031" y="0.498" width="896.168" height="579.717" style="fill:none;"/><path d="M557.932,238.378l2.338,-0.129l2.338,-0.143l2.337,-0.567l2.338,-0.79l2.338,-1.259l2.337,-1.192l2.338,-0.55l2.338,-1.304l2.337,-1.482l2.338,-1.776l2.338,-2.121l2.337,-2.502l2.338,-2.791l2.337,-1.969l2.338,-2.264l2.338,-0.915l2.337,-1.202l2.338,-1.557l2.338,-1.687l2.338,-1.836l2.337,-0.584l2.338,2.433l2.338,1.438l2.337,1.843l2.338,-1.497l2.338,-3.16l2.337,-1.903l2.338,-6.43l2.337,-10.366l2.338,-5.189l2.338,-0.825l2.337,2.729l2.338,1.679l2.338,3.281l2.337,5.847l2.338,7.932l2.338,5.125l2.338,4.684l2.337,2.006l2.338,1.331l2.338,2.02l2.337,-3.722l2.338,-4.593l2.337,-1.032l2.338,2.244l2.338,-6.511l2.337,-6.048l2.338,-8.605l2.338,-17.676l2.337,-19.282l2.338,-6.873l2.338,-1.298l2.337,5.595l2.338,10.433l2.338,16.817l2.338,12.592l2.337,14.237l2.338,6.416l2.337,5.088l2.338,2.763l2.338,1.739l2.337,1.475l2.338,0.556l2.338,0.291l2.337,-0.293l2.338,-0.128l2.338,-1.206l2.337,-2.117l2.338,-0.926l2.338,0.633l2.337,-5.738l2.338,-0.493l2.338,0.631l2.337,0.152l2.338,0.197l2.337,0.812l2.338,2.083l2.338,2.56l2.336,1.005l2.337,1.975l2.342,0.595l2.337,0.345l2.338,0.509l2.337,-0.056l2.338,0.766l2.337,0.863l2.338,0.79l2.337,0.341l2.338,-0.016l2.337,-0.567l2.338,-3.249l2.337,-12.369l2.338,-10.831l2.337,-12.103l2.338,-10.37l2.337,-6.442l2.338,-3.985l2.337,2.094l2.338,6.415l2.337,7.201l2.338,8.382l2.337,5.936l2.338,5.35l2.337,6.234l2.338,1.814l2.342,4.725l2.337,3.727l2.338,3.868l2.337,2.742l2.338,1.58l2.337,1.39l2.338,0.912l2.337,0.799l2.338,0.247l2.337,0.643l2.338,0.528l2.337,0.178l2.338,0.141l2.337,-0.296" style="fill:none;fill-rule:nonzero;stroke:#2f4f4f;stroke-width:4.17px;"/><text x="698.698px" y="553.45px" style="font-family:'ArialMT', 'Arial';font-size:33.333px;">2<tspan x="719.898px 741.098px 762.298px " y="553.45px 553.45px 553.45px ">021</tspan></text><text x="523.96px" y="518.036px" style="font-family:'ArialMT', 'Arial';font-size:33.333px;">J<tspan x="543.288px 564.487px 571.889px 586.463px 604.998px 625.492px 644.819px 666.018px 684.552px 699.123px 717.657px 744.502px 763.829px 785.027px 792.427px 806.998px " y="518.036px 518.036px 518.036px 518.036px 518.036px 518.036px 518.036px 518.036px 518.036px 518.036px 518.036px 518.036px 518.036px 518.036px 518.036px 518.036px ">ul 1 Jan 1 Jul 1</tspan></text><text x="522.108px" y="553.452px" style="font-family:'ArialMT', 'Arial';font-size:33.333px;">2<tspan x="543.308px 564.508px 585.708px " y="553.452px 553.452px 553.452px ">020</tspan></text><g transform="matrix(0,-1,1,0,697.716,-47.5544)"><text x="-283.148px" y="-166.156px" style="font-family:'ArialMT', 'Arial';font-size:33.333px;">Spain</text></g><g transform="matrix(0,-1,1,0,697.716,-47.5544)"><text x="-375.336px" y="-166.156px" style="font-family:'ArialMT', 'Arial';font-size:33.333px;">NL</text></g><g transform="matrix(0,-1,1,0,697.716,-47.5544)"><text x="-529.665px" y="-166.156px" style="font-family:'ArialMT', 'Arial';font-size:33.333px;">France</text></g><g><text x="597.969px" y="47.734px" style="font-family:'ArialMT', 'Arial';font-size:33.333px;">i<tspan x="607.692px 628.548px 647.532px 657.256px 678.112px 698.968px 719.824px 738.809px " y="47.734px 47.734px 47.734px 47.734px 47.734px 47.734px 47.734px 47.734px ">ncidence</tspan></text><g transform="matrix(4.16667,-2.55135e-16,2.55135e-16,4.16667,1360.14,-76.5525)"><text x="-189.671px" y="37.829px" style="font-family:'ArialMT', 'Arial';font-size:8px;">o<tspan x="-184.665px " y="37.829px ">f</tspan></text><text x="-178.713px" y="37.829px" style="font-family:'Arial-BoldMT', 'Arial';font-weight:700;font-size:8px;">C<tspan x="-172.38px -165.601px -159.709px -156.93px -150.596px -147.376px -142.37px " y="37.829px 37.829px 37.829px 37.829px 37.829px 37.829px 37.829px ">OVID-19</tspan></text></g></g><path d="M544.023,242.829l0,-97.939" style="fill:none;fill-rule:nonzero;stroke:#000;stroke-width:3.33px;stroke-linejoin:miter;"/><rect x="544.023" y="262.418" width="306" height="97.941" style="fill:#fff;"/><path d="M557.932,355.754l2.338,0.09l2.338,0.063l2.337,-0.018l2.338,-0.226l2.338,-0.293l2.337,-0.245l2.338,-0.207l2.338,-0.757l2.337,-0.828l2.338,-0.782l2.338,-0.817l2.337,0.107l2.338,0.4l2.337,0.202l2.338,0.044l2.338,-0.224l2.337,-0.982l2.338,-1.572l2.338,-1.948l2.338,-2.632l2.337,-3.523l2.338,-3.534l2.338,-3.898l2.337,-4.4l2.338,-8.128l2.338,-10.242l2.337,-9.988l2.338,-5.974l2.337,-6.05l2.338,-6.406l2.338,-1.902l2.337,9.182l2.338,14.982l2.338,8.582l2.337,1.264l2.338,0.837l2.338,-0.3l2.338,3.004l2.337,-0.667l2.338,-6.517l2.338,-10.762l2.337,-8.35l2.338,-16.411l2.337,-9.058l2.338,8.965l2.338,9.721l2.337,7.626l2.338,3.92l2.338,5.135l2.337,9.131l2.338,3.138l2.338,1.68l2.337,3.283l2.338,5.155l2.338,1.853l2.338,2.874l2.337,0.576l2.338,-1.34l2.337,-2.302l2.338,-4.273l2.338,-0.367l2.337,0.558l2.338,-0.79l2.338,-4.198l2.337,-4.81l2.338,-4.898l2.338,-5.136l2.337,-2.61l2.338,-0.122l2.338,3.894l2.337,0.897l2.338,-3.126l2.338,-3.455l2.337,-4.969l2.338,1.409l2.337,5.617l2.338,-0.633l2.338,0.661l2.336,5.819l2.337,8.61l2.342,7.034l2.337,4.222l2.338,6.811l2.337,1.474l2.338,3.808l2.337,3.805l2.338,3.958l2.337,2.459l2.338,1.854l2.337,1.436l2.338,0.576l2.337,-1.058l2.338,-6.905l2.337,-30.505l2.338,-27.422l2.337,-7.182l2.338,15.634l2.337,21.135l2.338,11.5l2.337,7.1l2.338,2.424l2.337,1.703l2.338,0.194l2.337,-0.297l2.338,-0.702l2.342,-0.836l2.337,0.631l2.338,-0.278l2.337,0.314l2.338,1.122l2.337,1.879l2.338,1.498l2.337,1.769l2.338,0.134l2.337,0.014l2.338,-1.751l2.337,-4.004l2.338,-5.091l2.337,-4.69" style="fill:none;fill-rule:nonzero;stroke:#2f4f4f;stroke-width:4.17px;"/><path d="M544.023,360.359l0,-97.941" style="fill:none;fill-rule:nonzero;stroke:#000;stroke-width:3.33px;stroke-linejoin:miter;"/><rect x="544.023" y="379.947" width="306" height="97.941" style="fill:#fff;"/><path d="M665.465,477.889l-0,14.583" style="fill:none;fill-rule:nonzero;stroke:#000;stroke-width:3.33px;stroke-linecap:butt;"/><path d="M665.465,477.889l-0,14.583" style="fill:none;fill-rule:nonzero;stroke:#000;stroke-width:3.33px;stroke-linecap:butt;"/><path d="M771.36,477.889l-0,14.583" style="fill:none;fill-rule:nonzero;stroke:#000;stroke-width:3.33px;stroke-linecap:butt;"/><path d="M558.146,477.889l-0,14.583" style="fill:none;fill-rule:nonzero;stroke:#000;stroke-width:3.33px;stroke-linecap:butt;"/><path d="M557.932,477.889l0,8.333" style="fill:none;fill-rule:nonzero;stroke:#000;stroke-width:2.5px;stroke-linecap:butt;"/><path d="M576.049,477.889l0,8.333" style="fill:none;fill-rule:nonzero;stroke:#000;stroke-width:2.5px;stroke-linecap:butt;"/><path d="M594.166,477.889l0,8.333" style="fill:none;fill-rule:nonzero;stroke:#000;stroke-width:2.5px;stroke-linecap:butt;"/><path d="M611.699,477.889l-0,8.333" style="fill:none;fill-rule:nonzero;stroke:#000;stroke-width:2.5px;stroke-linecap:butt;"/><path d="M629.815,477.889l0,8.333" style="fill:none;fill-rule:nonzero;stroke:#000;stroke-width:2.5px;stroke-linecap:butt;"/><path d="M647.348,477.889l-0,8.333" style="fill:none;fill-rule:nonzero;stroke:#000;stroke-width:2.5px;stroke-linecap:butt;"/><path d="M683.582,477.889l-0,8.333" style="fill:none;fill-rule:nonzero;stroke:#000;stroke-width:2.5px;stroke-linecap:butt;"/><path d="M699.945,477.889l0,8.333" style="fill:none;fill-rule:nonzero;stroke:#000;stroke-width:2.5px;stroke-linecap:butt;"/><path d="M718.062,477.889l0,8.333" style="fill:none;fill-rule:nonzero;stroke:#000;stroke-width:2.5px;stroke-linecap:butt;"/><path d="M735.594,477.889l0,8.333" style="fill:none;fill-rule:nonzero;stroke:#000;stroke-width:2.5px;stroke-linecap:butt;"/><path d="M753.71,477.889l-0,8.333" style="fill:none;fill-rule:nonzero;stroke:#000;stroke-width:2.5px;stroke-linecap:butt;"/><path d="M771.243,477.889l0,8.333" style="fill:none;fill-rule:nonzero;stroke:#000;stroke-width:2.5px;stroke-linecap:butt;"/><path d="M789.36,477.889l-0,8.333" style="fill:none;fill-rule:nonzero;stroke:#000;stroke-width:2.5px;stroke-linecap:butt;"/><path d="M807.477,477.889l-0,8.333" style="fill:none;fill-rule:nonzero;stroke:#000;stroke-width:2.5px;stroke-linecap:butt;"/><path d="M825.01,477.889l-0,8.333" style="fill:none;fill-rule:nonzero;stroke:#000;stroke-width:2.5px;stroke-linecap:butt;"/><path d="M842.939,477.889l0,8.333" style="fill:none;fill-rule:nonzero;stroke:#000;stroke-width:2.5px;stroke-linecap:butt;"/><path d="M557.932,473.437l2.338,-0.018l2.338,-0.125l2.337,0.007l2.338,-0.211l2.338,-0.466l2.337,-0.153l2.338,-0.381l2.338,-0.336l2.337,-0.675l2.338,-0.494l2.338,-0.974l2.337,-1.693l2.338,-1.272l2.337,-2.082l2.338,-1.647l2.338,-2.46l2.337,-1.807l2.338,-1.502l2.338,-1.514l2.338,-1.401l2.337,-0.046l2.338,1.057l2.338,-1.332l2.337,-4.773l2.338,-7.378l2.338,-7.825l2.337,-6.579l2.338,-17.856l2.337,-15.554l2.338,-9.548l2.338,0.159l2.337,10.181l2.338,24.591l2.338,9.507l2.337,10.891l2.338,7.971l2.338,5.598l2.338,1.247l2.337,0.104l2.338,-0.819l2.338,-1.142l2.337,-2.819l2.338,-2.502l2.337,4.022l2.338,0.176l2.338,-2.331l2.337,-2.604l2.338,-4.856l2.338,0.604l2.337,-1.509l2.338,-2.056l2.338,-0.16l2.337,-0.205l2.338,-0.245l2.338,1.641l2.338,3.403l2.337,1.584l2.338,-2.236l2.337,-2.62l2.338,-0.182l2.338,0.698l2.337,-0.286l2.338,-3.333l2.338,-5.101l2.337,-7.307l2.338,-5.394l2.338,-6.583l2.337,-3.812l2.338,0.557l2.338,9.816l2.337,-9.858l2.338,10.324l2.338,3.465l2.337,3.463l2.338,6.01l2.337,6.785l2.338,4.986l2.338,2.633l2.336,5.489l2.337,0.233l2.342,0.413l2.337,3.464l2.338,0.749l2.337,-0.755l2.338,4.766l2.337,2.825l2.338,3.091l2.337,2.038l2.338,1.062l2.337,0.734l2.338,0.124l2.337,-0.67l2.338,-1.041l2.337,-1.821l2.338,-2.064l2.337,-5.904l2.338,-14.226l2.337,-6.394l2.338,-2.238l2.337,-0.225l2.338,-2.106l2.337,-0.885l2.338,-1.397l2.337,4.737l2.338,0.486l2.342,6.123l2.337,4.416l2.338,3.444l2.337,3.737l2.338,2.552l2.337,3.018l2.338,1.764l2.337,1.789l2.338,0.721l2.337,0.986l2.338,0.924l2.337,0.188l2.338,-1.292l2.337,-0.048" style="fill:none;fill-rule:nonzero;stroke:#2f4f4f;stroke-width:4.17px;"/><path d="M544.023,477.889l0,-97.942" style="fill:none;fill-rule:nonzero;stroke:#000;stroke-width:3.33px;stroke-linejoin:miter;"/><path d="M544.023,477.889l305.999,-0" style="fill:none;fill-rule:nonzero;stroke:#000;stroke-width:3.33px;stroke-linejoin:miter;"/><text x="97.297px" y="537.904px" style="font-family:'ArialMT', 'Arial';font-size:33.333px;">2<tspan x="118.497px 139.697px 160.897px 179.43px 216.766px 237.966px 259.166px 280.366px " y="537.904px 537.904px 537.904px 537.904px 537.904px 537.904px 537.904px 537.904px ">012 2016</tspan></text><g transform="matrix(0,-1,1,0,-220.019,-83.1788)"><text x="-328.481px" y="274.9px" style="font-family:'ArialMT', 'Arial';font-size:33.333px;">Spain</text></g><g transform="matrix(0,-1,1,0,-220.019,-83.1788)"><text x="-420.67px" y="274.9px" style="font-family:'ArialMT', 'Arial';font-size:33.333px;">NL</text></g><g transform="matrix(0,-1,1,0,-220.019,-83.1788)"><text x="-574.999px" y="274.9px" style="font-family:'ArialMT', 'Arial';font-size:33.333px;">France</text></g><g><g><text x="134.6px" y="47.766px" style="font-family:'ArialMT', 'Arial';font-size:33.333px;">i<tspan x="144.323px 165.179px 184.164px 193.887px 214.743px 235.599px 256.455px 275.44px " y="47.766px 47.766px 47.766px 47.766px 47.766px 47.766px 47.766px 47.766px ">ncidence</tspan></text><g transform="matrix(4.16667,-2.55135e-16,2.55135e-16,4.16667,471.63,-76.5199)"><text x="-86.799px" y="37.829px" style="font-family:'ArialMT', 'Arial';font-size:8px;">o<tspan x="-81.793px " y="37.829px ">f</tspan></text><text x="-75.842px" y="37.829px" style="font-family:'Arial-BoldMT', 'Arial';font-weight:700;font-size:8px;">i<tspan x="-73.062px -67.619px -64.399px -61.62px -56.176px -51.171px -45.728px -41.171px " y="37.829px 37.829px 37.829px 37.829px 37.829px 37.829px 37.829px 37.829px ">nfluenza</tspan></text></g></g></g><path d="M81.253,245.833l1.649,0.908l2.199,0.908l2.199,-0.362l2.199,0.362l2.199,-0.908l2.199,0.363l2.199,0.545l2.199,0.18l2.199,-0l4.399,-0.363l2.198,-2.9l2.199,-30.662l2.2,-13.167l2.199,26.625l2.199,15.942l2.199,4.525l13.194,-0l2.199,-0.18l2.199,-0.725l2.199,-12.137l2.2,-44.458l2.199,-1.63l2.198,51.896l2.2,4.159l2.199,1.991l2.199,1.084l10.995,-0l2.199,-1.267l2.199,-0.542l2.749,-39.533l2.199,-20.217l2.199,38.092l2.199,21.3l2.199,2.167l8.797,-0l2.199,-0.18l2.199,0.18l2.199,-1.084l2.199,-7.221l2.199,-80.733l2.199,67.408l2.199,17.484l2.199,3.425l2.199,0.541l2.199,0.18l6.597,-0l2.2,-0.18l2.199,-0.362l2.199,-2.342l2.199,-3.425l2.199,-57.571l2.199,18.534l2.199,37.429l2.199,6.658l2.199,1.259l6.597,-0l2.199,-0.18l2.749,0.18l2.199,-0.18l2.199,-0.358l2.199,-0.721l1.65,-39.162l2.199,-11.138l2.199,32.696l2.199,12.933l2.199,5.213l2.201,0.717l2.196,-0l7.15,-0.717l2.196,-2.158l2.2,-2.692l2.2,-25.821l2.2,0.717l2.195,27.8l2.2,2.691l2.2,-0.179l2.2,0.359l8.796,-0l2.2,-0.18l2.196,-1.612l2.2,-3.588l2.2,-34.375l2.2,-20.054l2.2,40.829l2.196,18.084l2.2,0.537l2.2,0.359l10.996,-0l2.2,-0.18l2.196,-2.325l2.75,-6.254l2.2,-61.862l2.2,53.816l2.195,13.946l2.2,2.859l10.996,-0" style="fill:none;fill-rule:nonzero;stroke:#2f4f4f;stroke-width:4.17px;"/><path d="M67.343,252.283l0,-97.942" style="fill:none;fill-rule:nonzero;stroke:#000;stroke-width:3.33px;stroke-linejoin:miter;"/><rect x="67.343" y="271.871" width="306" height="97.941" style="fill:#fff;"/><path d="M81.253,360.291l2.203,-1.692l2.754,5.071l2.755,1.688l8.262,-0l2.755,-1.688l2.754,1.688l2.754,-0l2.754,-21.963l2.755,-67.075l2.754,73.921l2.754,13.438l2.754,1.679l13.772,-0l2.754,-1.679l2.754,0.008l2.755,1.671l2.754,-15.034l5.508,13.363l2.755,1.671l11.017,-0l2.754,-16.704l3.305,-36.455l2.754,6.646l2.755,34.884l2.754,11.629l11.017,-0l2.754,-1.659l2.755,1.659l2.754,-6.609l2.754,3.305l5.509,-0l2.754,3.304l13.771,-0l2.755,-24.779l2.754,-21.221l2.754,11.5l2.755,27.929l2.754,6.571l2.754,-1.642l2.754,1.642l5.509,-0l2.754,-3.284l2.755,-1.645l2.203,-29.38l2.754,-27.779l2.755,42.484l2.754,19.604l2.754,-1.634l2.755,1.634l5.508,-0l2.754,-1.634l2.754,-3.266l2.754,-19.609l2.755,-29.116l2.754,50.375l2.754,3.25l16.525,-0l2.754,-13l2.754,-37.1l2.754,-4.85l2.755,30.708l2.754,24.242l13.775,-0l2.754,-12.929l3.304,-9.575l2.754,-12.859l2.754,19.288l2.755,16.075l11.016,-0" style="fill:none;fill-rule:nonzero;stroke:#2f4f4f;stroke-width:4.17px;"/><path d="M67.343,369.812l0,-97.942" style="fill:none;fill-rule:nonzero;stroke:#000;stroke-width:3.33px;stroke-linejoin:miter;"/><rect x="67.343" y="389.4" width="306" height="97.941" style="fill:#fff;"/><path d="M140.699,487.341l0,14.583" style="fill:none;fill-rule:nonzero;stroke:#000;stroke-width:3.33px;stroke-linecap:butt;"/><path d="M260.165,487.341l0,14.583" style="fill:none;fill-rule:nonzero;stroke:#000;stroke-width:3.33px;stroke-linecap:butt;"/><path d="M81.007,487.341l0,8.333" style="fill:none;fill-rule:nonzero;stroke:#000;stroke-width:2.5px;stroke-linecap:butt;"/><path d="M110.853,487.341l0,8.333" style="fill:none;fill-rule:nonzero;stroke:#000;stroke-width:2.5px;stroke-linecap:butt;"/><path d="M170.627,487.341l0,8.333" style="fill:none;fill-rule:nonzero;stroke:#000;stroke-width:2.5px;stroke-linecap:butt;"/><path d="M200.473,487.341l0,8.333" style="fill:none;fill-rule:nonzero;stroke:#000;stroke-width:2.5px;stroke-linecap:butt;"/><path d="M230.319,487.341l0,8.333" style="fill:none;fill-rule:nonzero;stroke:#000;stroke-width:2.5px;stroke-linecap:butt;"/><path d="M290.093,487.341l-0,8.333" style="fill:none;fill-rule:nonzero;stroke:#000;stroke-width:2.5px;stroke-linecap:butt;"/><path d="M319.938,487.341l0,8.333" style="fill:none;fill-rule:nonzero;stroke:#000;stroke-width:2.5px;stroke-linecap:butt;"/><path d="M349.784,487.341l0,8.333" style="fill:none;fill-rule:nonzero;stroke:#000;stroke-width:2.5px;stroke-linecap:butt;"/><path d="M81.253,465.758l1.717,1.633l2.289,12.779l2.29,2.175l4.579,0.542l6.869,-0l2.289,-0.542l2.29,0.271l2.289,-1.087l2.29,-13.596l2.289,-26.646l2.29,-42.033l2.289,62.254l2.29,17.05l2.29,4.329l11.447,-0l4.58,-1.079l2.289,-6.767l2.29,2.163l2.289,-18.563l2.29,-41.758l2.29,39.871l2.289,21.825l2.29,4.308l2.289,-0.267l2.289,-0.541l2.29,0.808l4.579,-0l2.29,-2.963l2.289,-15.087l2.29,-14.279l2.862,-56.709l2.29,27.625l2.289,44.788l2.29,14.212l2.289,2.413l11.448,-0l2.289,-0.804l2.29,-2.95l2.29,-4.825l2.289,-25.059l2.29,-9.608l2.289,34.171l2.29,7.208l2.29,1.6l2.289,0.267l9.158,-1.333l2.29,1.333l2.29,-0.533l2.289,-3.205l2.289,-29.479l2.29,-14.616l2.29,34.545l2.289,13.288l11.448,-0l2.29,-0.796l2.289,0.796l2.29,-6.113l2.289,0.267l1.717,-13.996l2.29,-34.654l2.289,-3.971l2.292,47.621l2.287,10.846l13.167,-0.263l2.288,-7.141l2.291,-40.217l2.288,-4.787l2.291,31.341l2.288,19.488l2.292,1.579l16.025,-1.05l2.291,-2.638l2.288,-22.383l2.291,-3.554l2.288,0.258l2.292,4.459l2.287,22.025l2.292,2.62l13.162,0l2.292,-0.52l2.287,-6.034l2.863,-3.883l2.292,-42.808l2.287,33.67l2.292,15.4l2.287,4.438" style="fill:none;fill-rule:nonzero;stroke:#2f4f4f;stroke-width:4.17px;"/><path d="M67.343,487.341l0,-97.942" style="fill:none;fill-rule:nonzero;stroke:#000;stroke-width:3.33px;stroke-linejoin:miter;"/><path d="M67.343,487.341l306,0" style="fill:none;fill-rule:nonzero;stroke:#000;stroke-width:3.33px;stroke-linejoin:miter;"/></svg>